<svg width="23" height="23" viewBox="0 0 23 23" fill="none" xmlns="http://www.w3.org/2000/svg">
<path d="M20.7541 0C21.3231 0.00291033 21.8676 0.231664 22.268 0.635965C22.6684 1.04027 22.8918 1.58702 22.8891 2.156V15.094C22.8918 15.663 22.6684 16.2097 22.268 16.614C21.8676 17.0183 21.3231 17.2471 20.7541 17.25H7.94111C7.37212 17.2471 6.82759 17.0183 6.42722 16.614C6.02686 16.2097 5.80345 15.663 5.80611 15.094V2.156C5.80345 1.58702 6.02686 1.04027 6.42722 0.635965C6.82759 0.231664 7.37212 0.00291033 7.94111 0L20.7541 0ZM7.94111 18.688C6.99293 18.6822 6.08576 18.3005 5.41857 17.6268C4.75139 16.953 4.37865 16.0422 4.38211 15.094V5.75H2.24611C1.67712 5.75291 1.13259 5.98166 0.732225 6.38597C0.331862 6.79027 0.108449 7.33702 0.111107 7.906V20.844C0.108449 21.413 0.331862 21.9597 0.732225 22.364C1.13259 22.7683 1.67712 22.9971 2.24611 23H15.0591C15.6281 22.9971 16.1726 22.7683 16.573 22.364C16.9734 21.9597 17.1968 21.413 17.1941 20.844V18.688H7.94111Z" fill="#434343"/>
</svg>
