<svg width="25" height="21" viewBox="0 0 25 21" fill="#000000" xmlns="http://www.w3.org/2000/svg">
<path d="M20.833 17.4448V18.1388C20.833 18.6913 20.6135 19.2211 20.2229 19.6117C19.8323 20.0024 19.3024 20.2218 18.75 20.2218H2.083C1.53055 20.2218 1.00073 20.0024 0.610097 19.6117C0.219458 19.2211 0 18.6913 0 18.1388L0 7.02783C0 6.47539 0.219458 5.94557 0.610097 5.55493C1.00073 5.16429 1.53055 4.94483 2.083 4.94483H2.777V13.9728C2.77806 14.8935 3.14434 15.7762 3.79545 16.4271C4.44656 17.078 5.32932 17.444 6.25 17.4448H20.833ZM25 13.9718V2.86083C25 2.30839 24.7805 1.77857 24.3899 1.38793C23.9993 0.99729 23.4694 0.777832 22.917 0.777832H6.25C5.69755 0.777832 5.16774 0.99729 4.7771 1.38793C4.38646 1.77857 4.167 2.30839 4.167 2.86083V13.9718C4.16687 14.2455 4.22065 14.5164 4.32527 14.7693C4.42989 15.0221 4.58331 15.2519 4.77674 15.4454C4.97018 15.6389 5.19985 15.7924 5.45264 15.8972C5.70543 16.0019 5.97637 16.0558 6.25 16.0558H22.917C23.1906 16.0558 23.4616 16.0019 23.7144 15.8972C23.9671 15.7924 24.1968 15.6389 24.3903 15.4454C24.5837 15.2519 24.7371 15.0221 24.8417 14.7693C24.9464 14.5164 25.0001 14.2455 25 13.9718ZM11.111 4.94483C11.1108 5.35677 10.9885 5.7594 10.7595 6.10181C10.5305 6.44423 10.2051 6.71106 9.82444 6.86856C9.4438 7.02606 9.02501 7.06717 8.62101 6.98669C8.21702 6.9062 7.84596 6.70773 7.55474 6.41638C7.26353 6.12503 7.06524 5.75387 6.98495 5.34984C6.90466 4.9458 6.94597 4.52703 7.10365 4.14647C7.26134 3.76591 7.52833 3.44065 7.87085 3.21181C8.21338 2.98297 8.61606 2.86083 9.028 2.86083C9.30163 2.86083 9.57257 2.91474 9.82536 3.01949C10.0781 3.12423 10.3078 3.27775 10.5013 3.47128C10.6947 3.66481 10.8481 3.89456 10.9527 4.1474C11.0574 4.40023 11.1111 4.6712 11.111 4.94483ZM6.944 11.1948L9.354 8.78883C9.40238 8.74042 9.45983 8.70202 9.52306 8.67582C9.58629 8.64962 9.65406 8.63614 9.7225 8.63614C9.79094 8.63614 9.85871 8.64962 9.92194 8.67582C9.98517 8.70202 10.0426 8.74042 10.091 8.78883L11.806 10.5038L17.688 4.62183C17.7364 4.57342 17.7938 4.53502 17.8571 4.50882C17.9203 4.48262 17.9881 4.46914 18.0565 4.46914C18.1249 4.46914 18.1927 4.48262 18.2559 4.50882C18.3192 4.53502 18.3766 4.57342 18.425 4.62183L22.225 8.42183V13.2828H6.944V11.1948Z" fill="#434343"/>
</svg>
