<svg width="26" height="21" viewBox="0 0 26 21" fill="none" xmlns="http://www.w3.org/2000/svg">
<path d="M13.194 0.77788H0.694C0.50994 0.77788 0.333418 0.850997 0.203268 0.981148C0.0731176 1.1113 0 1.28782 0 1.47188L0 5.63888C0 5.82294 0.0731176 5.99946 0.203268 6.12961C0.333418 6.25976 0.50994 6.33288 0.694 6.33288H2.083C2.26706 6.33288 2.44358 6.25976 2.57373 6.12961C2.70388 5.99946 2.777 5.82294 2.777 5.63888V4.24988H5.207V17.4439H3.472C3.28794 17.4439 3.11142 17.517 2.98127 17.6471C2.85112 17.7773 2.778 17.9538 2.778 18.1379V19.5269C2.778 19.7109 2.85112 19.8875 2.98127 20.0176C3.11142 20.1478 3.28794 20.2209 3.472 20.2209H10.416C10.6001 20.2209 10.7766 20.1478 10.9067 20.0176C11.0369 19.8875 11.11 19.7109 11.11 19.5269V18.1389C11.11 17.9548 11.0369 17.7783 10.9067 17.6481C10.7766 17.518 10.6001 17.4449 10.416 17.4449H8.68V4.24988H11.11V5.63888C11.11 5.82294 11.1831 5.99946 11.3133 6.12961C11.4434 6.25976 11.6199 6.33288 11.804 6.33288H13.193C13.3771 6.33288 13.5536 6.25976 13.6837 6.12961C13.8139 5.99946 13.887 5.82294 13.887 5.63888V1.47188C13.887 1.28799 13.814 1.11162 13.6841 0.981501C13.5542 0.851379 13.3779 0.778145 13.194 0.77788ZM24.3 15.3609H22.222V5.63888H24.3C24.4369 5.63795 24.5704 5.59693 24.6842 5.52089C24.798 5.44484 24.887 5.33711 24.9402 5.21102C24.9934 5.08493 25.0085 4.94601 24.9836 4.81144C24.9586 4.67687 24.8948 4.55256 24.8 4.45388L21.324 0.98088C21.2595 0.916356 21.183 0.865168 21.0988 0.830244C21.0145 0.79532 20.9242 0.777344 20.833 0.777344C20.7418 0.777344 20.6515 0.79532 20.5672 0.830244C20.483 0.865168 20.4065 0.916356 20.342 0.98088L16.87 4.45388C16.7713 4.55036 16.7038 4.67417 16.6761 4.80937C16.6485 4.94456 16.6619 5.08494 16.7147 5.21243C16.7676 5.33992 16.8574 5.44867 16.9725 5.52467C17.0877 5.60068 17.223 5.64045 17.361 5.63888H19.444V15.3609H17.361C17.2249 15.3635 17.0925 15.4058 16.9801 15.4825C16.8677 15.5592 16.78 15.667 16.7279 15.7928C16.6758 15.9185 16.6615 16.0568 16.6868 16.1905C16.712 16.3243 16.7757 16.4478 16.87 16.5459L20.342 20.0179C20.4065 20.0824 20.483 20.1336 20.5672 20.1685C20.6515 20.2034 20.7418 20.2214 20.833 20.2214C20.9242 20.2214 21.0145 20.2034 21.0988 20.1685C21.183 20.1336 21.2595 20.0824 21.324 20.0179L24.8 16.5459C24.8993 16.4489 24.967 16.3242 24.9944 16.1882C25.0219 16.0521 25.0077 15.9109 24.9537 15.783C24.8997 15.6552 24.8085 15.5465 24.6919 15.4712C24.5753 15.3959 24.4388 15.3575 24.3 15.3609Z" fill="#434343"/>
</svg>
